
<svg xmlns="http://www.w3.org/2000/svg" width="64" height="64" version="1.0" viewBox="0 0 64 64">
<style>
    #favicon {
      fill: #111;
      @media (prefers-color-scheme: dark) {
        fill: #fff;
      }
    }
  </style>
<path id="favicon" d="M198.4 135c1.9 2.2 3.9 5.2 4.3 6.7.5 1.6.8 23.9.8 49.8 0 46.7 0 47-2.2 51.2-1.2 2.2-3.4 5.1-4.9 6.2l-2.7 2.1h15.1c12.2 0 15.1-.3 15.5-1.4.4-.9-.2-1.7-1.5-2.1-5-1.6-8.8-21.8-5.9-30.8 2-5.9 14-13.7 21.1-13.7 8.8 0 15.4 6.1 28.8 26.5 5.8 8.8 13 19.8 16.1 24.5 8.2 12.5 20.8 24.8 30.1 29.4 7.7 3.7 18.5 6.6 25.3 6.6 11.5 0 27.3-5.7 36.8-13.3 4.9-3.9 15.4-17.5 14.4-18.6-.2-.2-2.6 1.4-5.2 3.6-14.4 12.1-28.8 18.4-41.9 18.5-10 .1-16.6-1.9-25.5-7.8-10.7-7.1-16.9-14.7-32.5-40.4-14-23.1-19.6-29.9-29.1-35.5l-3.2-1.9 5.4-5.8c11.5-12.4 15.6-20.9 15.7-32.3 0-8-2-13.1-6.9-17.6-7.2-6.8-13.9-7.9-46.1-7.9h-25.4l3.6 4zm46.9 3.1c8.2 2.3 14.7 11.4 14.7 20.7-.1 8.1-5.8 19.4-14.6 28.8-4.7 4.9-18.8 15.5-23.2 17.3-6.3 2.6-6.3 2.5-6-31.6l.3-30.5 3.3-2.9c3.1-2.8 3.7-2.9 12.5-2.9 5 0 10.9.5 13 1.1z"/><path d="M330.3 164.8c-28.1 10-39.7 44.7-23.9 71.7 8.3 14.1 25.8 22.8 42.5 21.1 25-2.6 41.5-21.3 41.5-47.1 0-19.7-9.5-35.4-26.4-43.8-5.9-2.9-7.4-3.2-17.5-3.5-8.7-.2-12.1.2-16.2 1.6zm23.5 6.2c15.7 7 25.4 29.4 21.7 50.3-3.4 19.5-14.4 31.7-28.5 31.7-14.6 0-27.1-12.4-32-31.6-3.7-14.4-2.4-27.1 4-37.6 8.5-14 21.3-18.7 34.8-12.8z"/></svg>